<svg width="2213" height="3346" viewBox="0 0 2213 3346" fill="none" xmlns="http://www.w3.org/2000/svg">
<g clip-path="url(#clip0_15_14)">
<rect width="2213" height="3346" fill="white"/>
<path d="M1347 105L1252 0H2212.6V958.5L2103 882.5L2103 105L1347 105Z" fill="#21FEEB"/>
<path d="M1596.5 3230.5L1709 3345.5H-0.00012207L-0.00012207 1678L101 1769.5L101 3230.5H1596.5Z" fill="#21FEEB"/>
<path d="M108.5 1710.5L0 1612.5L0 1528.5L108.5 1627.5L108.5 1710.5Z" fill="#21FEEB"/>
<path d="M108.5 1561L0 1463L0 1379L108.5 1478L108.5 1561Z" fill="#282828"/>
<path d="M108.5 1627.5L0 1528V1463L108.5 1562.5V1627.5Z" fill="white"/>
<path d="M101 1771L-0.5 1677.5V1612L101 1703.5V1771Z" fill="white"/>
<path d="M2213 3231H1830L1938.78 3346H2213V3231Z" fill="#282828"/>
<path d="M1709.5 3346L1596 3230H1676.5L1783 3346H1709.5Z" fill="white"/>
<path d="M1866 3344.5L1758.5 3230H1830L1935 3344.5H1866Z" fill="white"/>
<path d="M1782.5 3345L1676.5 3230H1760L1866.5 3345H1782.5Z" fill="#21FEEB"/>
</g>
<defs>
<clipPath id="clip0_15_14">
<rect width="2213" height="3346" fill="white"/>
</clipPath>
</defs>
</svg>
